<mxfile host="app.diagrams.net" modified="2023-05-21T21:23:06.667Z" agent="Mozilla/5.0 (Windows NT 10.0; Win64; x64) AppleWebKit/537.36 (KHTML, like Gecko) Chrome/113.0.0.0 Safari/537.36" etag="UdCkCNN5Ju5dzWSw8xcq" version="21.3.2" type="device">
  <diagram id="6a731a19-8d31-9384-78a2-239565b7b9f0" name="Page-1">
    <mxGraphModel dx="3509" dy="2402" grid="1" gridSize="10" guides="0" tooltips="1" connect="1" arrows="1" fold="1" page="1" pageScale="1" pageWidth="1169" pageHeight="827" background="none" math="0" shadow="0">
      <root>
        <mxCell id="0" />
        <mxCell id="1" parent="0" />
        <mxCell id="B97FNli7kyXhGJYyz91e-1827" style="edgeStyle=orthogonalEdgeStyle;rounded=0;orthogonalLoop=1;jettySize=auto;html=1;exitX=0.5;exitY=1;exitDx=0;exitDy=0;endArrow=none;endFill=0;" parent="1" source="1749" target="B97FNli7kyXhGJYyz91e-1786" edge="1">
          <mxGeometry relative="1" as="geometry" />
        </mxCell>
        <mxCell id="1749" value="&lt;font style=&quot;font-size: 47px;&quot;&gt;함안 문화관광 사이트&lt;br&gt;https://haman.go.kr&lt;br&gt;(/)&lt;br&gt;&lt;/font&gt;" style="rounded=1;whiteSpace=wrap;html=1;shadow=0;labelBackgroundColor=none;strokeWidth=3;fontFamily=Helvetica;fontSize=20;align=center;fontStyle=1;spacing=5;arcSize=7;perimeterSpacing=2;fillColor=#f8cecc;strokeColor=#b85450;" parent="1" vertex="1">
          <mxGeometry x="-61" y="-80" width="1230" height="200" as="geometry" />
        </mxCell>
        <mxCell id="B97FNli7kyXhGJYyz91e-1782" style="edgeStyle=orthogonalEdgeStyle;rounded=0;orthogonalLoop=1;jettySize=auto;html=1;exitX=1;exitY=0.5;exitDx=0;exitDy=0;endArrow=none;endFill=0;" parent="1" source="1771" target="B97FNli7kyXhGJYyz91e-1781" edge="1">
          <mxGeometry relative="1" as="geometry">
            <Array as="points">
              <mxPoint x="-560" y="302" />
              <mxPoint x="-560" y="302" />
            </Array>
          </mxGeometry>
        </mxCell>
        <mxCell id="B97FNli7kyXhGJYyz91e-1798" style="edgeStyle=orthogonalEdgeStyle;rounded=0;orthogonalLoop=1;jettySize=auto;html=1;exitX=0.5;exitY=1;exitDx=0;exitDy=0;endArrow=none;endFill=0;" parent="1" source="1771" target="kG1Z84SjeEAYpl0R3kHJ-1785" edge="1">
          <mxGeometry relative="1" as="geometry" />
        </mxCell>
        <mxCell id="B97FNli7kyXhGJYyz91e-1800" style="edgeStyle=orthogonalEdgeStyle;rounded=0;orthogonalLoop=1;jettySize=auto;html=1;exitX=0.5;exitY=1;exitDx=0;exitDy=0;endArrow=none;endFill=0;" parent="1" edge="1">
          <mxGeometry relative="1" as="geometry">
            <mxPoint x="-833.2499999999995" y="358.99999999999955" as="sourcePoint" />
            <mxPoint x="-650" y="410" as="targetPoint" />
            <Array as="points">
              <mxPoint x="-833" y="387" />
              <mxPoint x="-655" y="387" />
            </Array>
          </mxGeometry>
        </mxCell>
        <mxCell id="1771" value="&amp;lt;공지사항&amp;gt;&lt;br&gt;함안소식 글 목록&lt;br&gt;NoticeList.do" style="rounded=1;whiteSpace=wrap;html=1;shadow=0;labelBackgroundColor=none;strokeWidth=3;fontFamily=Helvetica;fontSize=30;align=center;spacing=5;fontStyle=1;arcSize=7;perimeterSpacing=2;aspect=fixed;fillColor=#cce5ff;strokeColor=#36393d;" parent="1" vertex="1">
          <mxGeometry x="-1000" y="245" width="333.5" height="115" as="geometry" />
        </mxCell>
        <mxCell id="kG1Z84SjeEAYpl0R3kHJ-1810" style="edgeStyle=orthogonalEdgeStyle;rounded=0;orthogonalLoop=1;jettySize=auto;html=1;exitX=0.5;exitY=1;exitDx=0;exitDy=0;endArrow=none;endFill=0;" parent="1" target="kG1Z84SjeEAYpl0R3kHJ-1804" edge="1">
          <mxGeometry relative="1" as="geometry">
            <mxPoint x="-655.0700000000003" y="499.74999999999955" as="sourcePoint" />
          </mxGeometry>
        </mxCell>
        <mxCell id="B97FNli7kyXhGJYyz91e-1799" style="edgeStyle=orthogonalEdgeStyle;rounded=0;orthogonalLoop=1;jettySize=auto;html=1;exitX=0.5;exitY=1;exitDx=0;exitDy=0;endArrow=none;endFill=0;" parent="1" source="kG1Z84SjeEAYpl0R3kHJ-1785" target="kG1Z84SjeEAYpl0R3kHJ-1788" edge="1">
          <mxGeometry relative="1" as="geometry" />
        </mxCell>
        <mxCell id="kG1Z84SjeEAYpl0R3kHJ-1785" value="&lt;font style=&quot;font-size: 29px;&quot;&gt;함안소식 글 상세보기&lt;br&gt;NoticeDetail.do&lt;br&gt;&lt;/font&gt;" style="rounded=1;whiteSpace=wrap;html=1;shadow=0;labelBackgroundColor=none;strokeWidth=3;fontFamily=Helvetica;fontSize=30;align=center;spacing=5;fontStyle=0;arcSize=7;perimeterSpacing=2;aspect=fixed;" parent="1" vertex="1">
          <mxGeometry x="-1160" y="411.75" width="289.86" height="100" as="geometry" />
        </mxCell>
        <mxCell id="kG1Z84SjeEAYpl0R3kHJ-1786" value="&lt;font style=&quot;&quot;&gt;&lt;span style=&quot;font-size: 29px;&quot;&gt;함안소식 글 수정&lt;/span&gt;&lt;br&gt;&lt;font style=&quot;font-size: 28px;&quot;&gt;NoticeUpdate.do&lt;/font&gt;&lt;br&gt;&lt;/font&gt;" style="rounded=1;whiteSpace=wrap;html=1;shadow=0;labelBackgroundColor=none;strokeWidth=3;fontFamily=Helvetica;fontSize=30;align=center;spacing=5;fontStyle=0;arcSize=7;perimeterSpacing=2;aspect=fixed;" parent="1" vertex="1">
          <mxGeometry x="-1160" y="674" width="289.86" height="100" as="geometry" />
        </mxCell>
        <mxCell id="kG1Z84SjeEAYpl0R3kHJ-1788" value="&lt;font style=&quot;font-size: 29px;&quot;&gt;함안소식 글 삭제&lt;br&gt;NoticeDel.do&lt;br&gt;&lt;/font&gt;" style="rounded=1;whiteSpace=wrap;html=1;shadow=0;labelBackgroundColor=none;strokeWidth=3;fontFamily=Helvetica;fontSize=30;align=center;spacing=5;fontStyle=0;arcSize=7;perimeterSpacing=2;aspect=fixed;" parent="1" vertex="1">
          <mxGeometry x="-1160" y="800" width="289.86" height="100" as="geometry" />
        </mxCell>
        <mxCell id="kG1Z84SjeEAYpl0R3kHJ-1789" value="&lt;font style=&quot;font-size: 29px;&quot;&gt;함안소식 글쓰기&lt;br&gt;NoticeAdd.do&lt;br&gt;&lt;/font&gt;" style="rounded=1;whiteSpace=wrap;html=1;shadow=0;labelBackgroundColor=none;strokeWidth=3;fontFamily=Helvetica;fontSize=30;align=center;spacing=5;fontStyle=0;arcSize=7;perimeterSpacing=2;aspect=fixed;" parent="1" vertex="1">
          <mxGeometry x="-1160" y="550" width="289.86" height="100" as="geometry" />
        </mxCell>
        <mxCell id="kG1Z84SjeEAYpl0R3kHJ-1790" value="&lt;font style=&quot;&quot;&gt;&lt;span style=&quot;font-size: 27px;&quot;&gt;고객 민원 상세보기&lt;/span&gt;&lt;br&gt;&lt;font style=&quot;font-size: 25px;&quot;&gt;compainDetail.do&lt;/font&gt;&lt;br&gt;&lt;/font&gt;" style="rounded=1;whiteSpace=wrap;html=1;shadow=0;labelBackgroundColor=none;strokeWidth=3;fontFamily=Helvetica;fontSize=30;align=center;spacing=5;fontStyle=0;arcSize=7;perimeterSpacing=2;aspect=fixed;" parent="1" vertex="1">
          <mxGeometry x="-800.0000000000001" y="540.62" width="289.86" height="100" as="geometry" />
        </mxCell>
        <mxCell id="kG1Z84SjeEAYpl0R3kHJ-1792" value="&lt;font style=&quot;&quot;&gt;&lt;span style=&quot;font-size: 29px;&quot;&gt;고객 민원 목록&lt;/span&gt;&lt;br&gt;&lt;font style=&quot;font-size: 28px;&quot;&gt;compainList.do&lt;/font&gt;&lt;br&gt;&lt;/font&gt;" style="rounded=1;whiteSpace=wrap;html=1;shadow=0;labelBackgroundColor=none;strokeWidth=3;fontFamily=Helvetica;fontSize=30;align=center;spacing=5;fontStyle=0;arcSize=7;perimeterSpacing=2;aspect=fixed;" parent="1" vertex="1">
          <mxGeometry x="-800.0000000000001" y="411.75" width="289.86" height="100" as="geometry" />
        </mxCell>
        <mxCell id="kG1Z84SjeEAYpl0R3kHJ-1793" value="&lt;font style=&quot;&quot;&gt;&lt;span style=&quot;font-size: 29px;&quot;&gt;고객 민원 글 삭제&lt;/span&gt;&lt;br&gt;&lt;font style=&quot;font-size: 29px;&quot;&gt;compainDel.do&lt;/font&gt;&lt;br&gt;&lt;/font&gt;" style="rounded=1;whiteSpace=wrap;html=1;shadow=0;labelBackgroundColor=none;strokeWidth=3;fontFamily=Helvetica;fontSize=30;align=center;spacing=5;fontStyle=0;arcSize=7;perimeterSpacing=2;aspect=fixed;" parent="1" vertex="1">
          <mxGeometry x="-800.0000000000001" y="800" width="289.86" height="100" as="geometry" />
        </mxCell>
        <mxCell id="kG1Z84SjeEAYpl0R3kHJ-1794" value="&lt;font style=&quot;&quot;&gt;&lt;span style=&quot;font-size: 29px;&quot;&gt;고객 민원 글쓰기&lt;/span&gt;&lt;br&gt;&lt;font style=&quot;font-size: 27px;&quot;&gt;compainAdd.do&lt;/font&gt;&lt;br&gt;&lt;/font&gt;" style="rounded=1;whiteSpace=wrap;html=1;shadow=0;labelBackgroundColor=none;strokeWidth=3;fontFamily=Helvetica;fontSize=30;align=center;spacing=5;fontStyle=0;arcSize=7;perimeterSpacing=2;aspect=fixed;" parent="1" vertex="1">
          <mxGeometry x="-800.0000000000001" y="671.12" width="289.86" height="100" as="geometry" />
        </mxCell>
        <mxCell id="kG1Z84SjeEAYpl0R3kHJ-1819" style="edgeStyle=orthogonalEdgeStyle;rounded=0;orthogonalLoop=1;jettySize=auto;html=1;exitX=0.5;exitY=1;exitDx=0;exitDy=0;endArrow=none;endFill=0;" parent="1" target="kG1Z84SjeEAYpl0R3kHJ-1802" edge="1">
          <mxGeometry relative="1" as="geometry">
            <mxPoint x="-284.99999999999955" y="361.99999999999955" as="sourcePoint" />
          </mxGeometry>
        </mxCell>
        <mxCell id="kG1Z84SjeEAYpl0R3kHJ-1870" style="edgeStyle=orthogonalEdgeStyle;rounded=0;orthogonalLoop=1;jettySize=auto;html=1;exitX=1;exitY=0.5;exitDx=0;exitDy=0;entryX=0;entryY=0.5;entryDx=0;entryDy=0;endArrow=none;endFill=0;" parent="1" edge="1">
          <mxGeometry relative="1" as="geometry">
            <mxPoint x="-138" y="309.99999999999955" as="sourcePoint" />
            <mxPoint x="-2" y="309.99999999999955" as="targetPoint" />
          </mxGeometry>
        </mxCell>
        <mxCell id="kG1Z84SjeEAYpl0R3kHJ-1798" value="&lt;font style=&quot;&quot;&gt;회원정보수정&lt;font style=&quot;font-size: 29px;&quot;&gt;MypageUpdate.do&lt;/font&gt;&lt;br&gt;&lt;/font&gt;" style="rounded=1;whiteSpace=wrap;html=1;shadow=0;labelBackgroundColor=none;strokeWidth=3;fontFamily=Helvetica;fontSize=30;align=center;spacing=5;fontStyle=0;arcSize=7;perimeterSpacing=2;aspect=fixed;flipV=1;flipH=0;" parent="1" vertex="1">
          <mxGeometry x="-418.18" y="788.25" width="289.86" height="100" as="geometry" />
        </mxCell>
        <mxCell id="kG1Z84SjeEAYpl0R3kHJ-1799" value="&lt;font style=&quot;&quot;&gt;&lt;span style=&quot;font-size: 29px;&quot;&gt;회원가입&lt;/span&gt;&lt;br&gt;Sginup.do&lt;br&gt;&lt;/font&gt;" style="rounded=1;whiteSpace=wrap;html=1;shadow=0;labelBackgroundColor=none;strokeWidth=3;fontFamily=Helvetica;fontSize=30;align=center;spacing=5;fontStyle=0;arcSize=7;perimeterSpacing=2;aspect=fixed;flipH=0;flipV=1;" parent="1" vertex="1">
          <mxGeometry x="-418.18" y="523.75" width="289.86" height="100" as="geometry" />
        </mxCell>
        <mxCell id="kG1Z84SjeEAYpl0R3kHJ-1800" value="&lt;font style=&quot;&quot;&gt;&lt;span style=&quot;font-size: 29px;&quot;&gt;로그아웃&lt;/span&gt;&lt;br&gt;&lt;font style=&quot;font-size: 31px;&quot;&gt;Logout.do&lt;/font&gt;&lt;br&gt;&lt;/font&gt;" style="rounded=1;whiteSpace=wrap;html=1;shadow=0;labelBackgroundColor=none;strokeWidth=3;fontFamily=Helvetica;fontSize=30;align=center;spacing=5;fontStyle=0;arcSize=7;perimeterSpacing=2;aspect=fixed;flipV=1;flipH=0;" parent="1" vertex="1">
          <mxGeometry x="-418.18" y="917.75" width="289.86" height="100" as="geometry" />
        </mxCell>
        <mxCell id="kG1Z84SjeEAYpl0R3kHJ-1801" value="&lt;font style=&quot;&quot;&gt;&lt;span style=&quot;font-size: 29px;&quot;&gt;회원정보&lt;br&gt;&lt;/span&gt;Mypage.do&lt;br&gt;&lt;/font&gt;" style="rounded=1;whiteSpace=wrap;html=1;shadow=0;labelBackgroundColor=none;strokeWidth=3;fontFamily=Helvetica;fontSize=30;align=center;spacing=5;fontStyle=0;arcSize=7;perimeterSpacing=2;aspect=fixed;flipV=1;flipH=0;" parent="1" vertex="1">
          <mxGeometry x="-418.18" y="658.25" width="289.86" height="100" as="geometry" />
        </mxCell>
        <mxCell id="kG1Z84SjeEAYpl0R3kHJ-1802" value="&lt;font style=&quot;font-size: 30px;&quot;&gt;&lt;span style=&quot;&quot;&gt;회원 탈퇴&lt;/span&gt;&lt;br&gt;&lt;font style=&quot;font-size: 30px;&quot;&gt;Memberdel.do&lt;/font&gt;&lt;br&gt;&lt;/font&gt;" style="rounded=1;whiteSpace=wrap;html=1;shadow=0;labelBackgroundColor=none;strokeWidth=3;fontFamily=Helvetica;fontSize=30;align=center;spacing=5;fontStyle=0;arcSize=7;perimeterSpacing=2;aspect=fixed;flipV=1;flipH=0;" parent="1" vertex="1">
          <mxGeometry x="-418.18" y="1053.75" width="289.86" height="100" as="geometry" />
        </mxCell>
        <mxCell id="kG1Z84SjeEAYpl0R3kHJ-1803" value="&lt;font style=&quot;&quot;&gt;&lt;span style=&quot;font-size: 29px;&quot;&gt;고객 민원 답변 수정&lt;/span&gt;&lt;br&gt;&lt;font style=&quot;font-size: 28px;&quot;&gt;ReplyUpdate.do&lt;/font&gt;&lt;br&gt;&lt;/font&gt;" style="rounded=1;whiteSpace=wrap;html=1;shadow=0;labelBackgroundColor=none;strokeWidth=3;fontFamily=Helvetica;fontSize=30;align=center;spacing=5;fontStyle=0;arcSize=7;perimeterSpacing=2;aspect=fixed;" parent="1" vertex="1">
          <mxGeometry x="-800.0000000000001" y="1063.75" width="289.86" height="100" as="geometry" />
        </mxCell>
        <mxCell id="kG1Z84SjeEAYpl0R3kHJ-1804" value="&lt;font style=&quot;font-size: 31px;&quot;&gt;&lt;span style=&quot;&quot;&gt;고객 민원 답변 삭제&lt;/span&gt;&lt;br&gt;&lt;font style=&quot;font-size: 31px;&quot;&gt;ReplyDel.do&lt;/font&gt;&lt;br&gt;&lt;/font&gt;" style="rounded=1;whiteSpace=wrap;html=1;shadow=0;labelBackgroundColor=none;strokeWidth=3;fontFamily=Helvetica;fontSize=30;align=center;spacing=5;fontStyle=0;arcSize=7;perimeterSpacing=2;aspect=fixed;" parent="1" vertex="1">
          <mxGeometry x="-800.0000000000001" y="1193.25" width="289.86" height="100" as="geometry" />
        </mxCell>
        <mxCell id="kG1Z84SjeEAYpl0R3kHJ-1805" value="&lt;font style=&quot;&quot;&gt;&lt;span style=&quot;font-size: 29px;&quot;&gt;고객 민원 답변하기&lt;/span&gt;&lt;br&gt;&lt;font style=&quot;font-size: 27px;&quot;&gt;ReplyAdd.do&lt;/font&gt;&lt;br&gt;&lt;/font&gt;" style="rounded=1;whiteSpace=wrap;html=1;shadow=0;labelBackgroundColor=none;strokeWidth=3;fontFamily=Helvetica;fontSize=30;align=center;spacing=5;fontStyle=0;arcSize=7;perimeterSpacing=2;aspect=fixed;" parent="1" vertex="1">
          <mxGeometry x="-800.0000000000001" y="933.7499999999999" width="289.86" height="100" as="geometry" />
        </mxCell>
        <mxCell id="kG1Z84SjeEAYpl0R3kHJ-1831" style="edgeStyle=orthogonalEdgeStyle;rounded=0;orthogonalLoop=1;jettySize=auto;html=1;exitX=0.5;exitY=1;exitDx=0;exitDy=0;endArrow=none;endFill=0;" parent="1" target="kG1Z84SjeEAYpl0R3kHJ-1822" edge="1">
          <mxGeometry relative="1" as="geometry">
            <mxPoint x="145" y="361.99999999999955" as="sourcePoint" />
          </mxGeometry>
        </mxCell>
        <mxCell id="kG1Z84SjeEAYpl0R3kHJ-1818" value="&lt;font style=&quot;&quot;&gt;&lt;b&gt;&lt;span style=&quot;font-size: 27px;&quot;&gt;회원가입 이용약관&lt;/span&gt;&lt;br&gt;&lt;/b&gt;Agree.do&lt;br&gt;&lt;/font&gt;" style="rounded=1;whiteSpace=wrap;html=1;shadow=0;labelBackgroundColor=none;strokeWidth=3;fontFamily=Helvetica;fontSize=30;align=center;spacing=5;fontStyle=0;arcSize=7;perimeterSpacing=2;aspect=fixed;flipV=1;flipH=0;" parent="1" vertex="1">
          <mxGeometry x="-418.18" y="400" width="289.86" height="100" as="geometry" />
        </mxCell>
        <mxCell id="kG1Z84SjeEAYpl0R3kHJ-1821" value="함안낙화놀이 상세&lt;br&gt;Fireworks.do" style="rounded=1;whiteSpace=wrap;html=1;shadow=0;labelBackgroundColor=none;strokeWidth=3;fontFamily=Helvetica;fontSize=30;align=center;spacing=5;fontStyle=0;arcSize=7;perimeterSpacing=2;aspect=fixed;flipV=1;flipH=0;" parent="1" vertex="1">
          <mxGeometry y="400" width="289.86" height="100" as="geometry" />
        </mxCell>
        <mxCell id="kG1Z84SjeEAYpl0R3kHJ-1822" value="해바라기축제 상세&lt;br&gt;Sunflower.do" style="rounded=1;whiteSpace=wrap;html=1;shadow=0;labelBackgroundColor=none;strokeWidth=3;fontFamily=Helvetica;fontSize=30;align=center;spacing=5;fontStyle=0;arcSize=7;perimeterSpacing=2;aspect=fixed;flipV=1;flipH=0;" parent="1" vertex="1">
          <mxGeometry y="530" width="289.86" height="100" as="geometry" />
        </mxCell>
        <mxCell id="B97FNli7kyXhGJYyz91e-1801" style="edgeStyle=orthogonalEdgeStyle;rounded=0;orthogonalLoop=1;jettySize=auto;html=1;exitX=0.5;exitY=1;exitDx=0;exitDy=0;entryX=0.5;entryY=0;entryDx=0;entryDy=0;endArrow=none;endFill=0;" parent="1" source="kG1Z84SjeEAYpl0R3kHJ-1827" target="kG1Z84SjeEAYpl0R3kHJ-1830" edge="1">
          <mxGeometry relative="1" as="geometry" />
        </mxCell>
        <mxCell id="kG1Z84SjeEAYpl0R3kHJ-1827" value="입곡문화공원 상세Eco2.do" style="rounded=1;whiteSpace=wrap;html=1;shadow=0;labelBackgroundColor=none;strokeWidth=3;fontFamily=Helvetica;fontSize=30;align=center;spacing=5;fontStyle=0;arcSize=7;perimeterSpacing=2;aspect=fixed;flipV=1;flipH=0;" parent="1" vertex="1">
          <mxGeometry x="410" y="410" width="289.86" height="100" as="geometry" />
        </mxCell>
        <mxCell id="kG1Z84SjeEAYpl0R3kHJ-1828" value="입곡군립공원 상세&lt;br&gt;Eco3.do" style="rounded=1;whiteSpace=wrap;html=1;shadow=0;labelBackgroundColor=none;strokeWidth=3;fontFamily=Helvetica;fontSize=30;align=center;spacing=5;fontStyle=0;arcSize=7;perimeterSpacing=2;aspect=fixed;flipV=1;flipH=0;" parent="1" vertex="1">
          <mxGeometry x="410" y="540.5" width="289.86" height="100" as="geometry" />
        </mxCell>
        <mxCell id="kG1Z84SjeEAYpl0R3kHJ-1829" value="연꽃테마파크 상세&lt;br&gt;Eco4.do" style="rounded=1;whiteSpace=wrap;html=1;shadow=0;labelBackgroundColor=none;strokeWidth=3;fontFamily=Helvetica;fontSize=30;align=center;spacing=5;fontStyle=0;arcSize=7;perimeterSpacing=2;aspect=fixed;flipV=1;flipH=0;" parent="1" vertex="1">
          <mxGeometry x="410" y="670.5" width="289.86" height="100" as="geometry" />
        </mxCell>
        <mxCell id="kG1Z84SjeEAYpl0R3kHJ-1830" value="악양생태공원 상세&lt;br&gt;Eco5.do" style="rounded=1;whiteSpace=wrap;html=1;shadow=0;labelBackgroundColor=none;strokeWidth=3;fontFamily=Helvetica;fontSize=30;align=center;spacing=5;fontStyle=0;arcSize=7;perimeterSpacing=2;aspect=fixed;flipV=1;flipH=0;" parent="1" vertex="1">
          <mxGeometry x="410" y="800" width="289.86" height="100" as="geometry" />
        </mxCell>
        <mxCell id="B97FNli7kyXhGJYyz91e-1821" style="edgeStyle=orthogonalEdgeStyle;rounded=0;orthogonalLoop=1;jettySize=auto;html=1;exitX=0.5;exitY=1;exitDx=0;exitDy=0;endArrow=none;endFill=0;" parent="1" source="kG1Z84SjeEAYpl0R3kHJ-1844" target="kG1Z84SjeEAYpl0R3kHJ-1846" edge="1">
          <mxGeometry relative="1" as="geometry" />
        </mxCell>
        <mxCell id="kG1Z84SjeEAYpl0R3kHJ-1844" value="함안악양루 상세&lt;br&gt;History2.do" style="rounded=1;whiteSpace=wrap;html=1;shadow=0;labelBackgroundColor=none;strokeWidth=3;fontFamily=Helvetica;fontSize=30;align=center;spacing=5;fontStyle=0;arcSize=7;perimeterSpacing=2;aspect=fixed;flipV=1;flipH=0;" parent="1" vertex="1">
          <mxGeometry x="771.82" y="557.25" width="289.86" height="100" as="geometry" />
        </mxCell>
        <mxCell id="kG1Z84SjeEAYpl0R3kHJ-1845" value="원효암 칠성각 상세&lt;br&gt;History3.do" style="rounded=1;whiteSpace=wrap;html=1;shadow=0;labelBackgroundColor=none;strokeWidth=3;fontFamily=Helvetica;fontSize=30;align=center;spacing=5;fontStyle=0;arcSize=7;perimeterSpacing=2;aspect=fixed;flipV=1;flipH=0;" parent="1" vertex="1">
          <mxGeometry x="771.82" y="687.75" width="289.86" height="100" as="geometry" />
        </mxCell>
        <mxCell id="kG1Z84SjeEAYpl0R3kHJ-1846" value="장춘사 대웅전 상세&lt;br&gt;History4.do" style="rounded=1;whiteSpace=wrap;html=1;shadow=0;labelBackgroundColor=none;strokeWidth=3;fontFamily=Helvetica;fontSize=30;align=center;spacing=5;fontStyle=0;arcSize=7;perimeterSpacing=2;aspect=fixed;flipV=1;flipH=0;" parent="1" vertex="1">
          <mxGeometry x="771.82" y="817.75" width="289.86" height="100" as="geometry" />
        </mxCell>
        <mxCell id="B97FNli7kyXhGJYyz91e-1809" style="edgeStyle=orthogonalEdgeStyle;rounded=0;orthogonalLoop=1;jettySize=auto;html=1;exitX=0.5;exitY=1;exitDx=0;exitDy=0;entryX=0.5;entryY=0;entryDx=0;entryDy=0;endArrow=none;endFill=0;" parent="1" source="kG1Z84SjeEAYpl0R3kHJ-1858" target="kG1Z84SjeEAYpl0R3kHJ-1859" edge="1">
          <mxGeometry relative="1" as="geometry" />
        </mxCell>
        <mxCell id="kG1Z84SjeEAYpl0R3kHJ-1858" value="음식점 상세&lt;br&gt;Food.do" style="rounded=1;whiteSpace=wrap;html=1;shadow=0;labelBackgroundColor=none;strokeWidth=3;fontFamily=Helvetica;fontSize=30;align=center;spacing=5;fontStyle=0;arcSize=7;perimeterSpacing=2;aspect=fixed;flipV=1;flipH=0;" parent="1" vertex="1">
          <mxGeometry x="1541.8200000000002" y="419" width="289.86" height="100" as="geometry" />
        </mxCell>
        <mxCell id="kG1Z84SjeEAYpl0R3kHJ-1859" value="숙박시설 상세&lt;br&gt;Accom.do" style="rounded=1;whiteSpace=wrap;html=1;shadow=0;labelBackgroundColor=none;strokeWidth=3;fontFamily=Helvetica;fontSize=30;align=center;spacing=5;fontStyle=0;arcSize=7;perimeterSpacing=2;aspect=fixed;flipV=1;flipH=0;" parent="1" vertex="1">
          <mxGeometry x="1541.8200000000002" y="549.5" width="289.86" height="100" as="geometry" />
        </mxCell>
        <mxCell id="B97FNli7kyXhGJYyz91e-1824" style="edgeStyle=orthogonalEdgeStyle;rounded=0;orthogonalLoop=1;jettySize=auto;html=1;exitX=0.5;exitY=1;exitDx=0;exitDy=0;entryX=0.5;entryY=0;entryDx=0;entryDy=0;endArrow=none;endFill=0;" parent="1" source="kG1Z84SjeEAYpl0R3kHJ-1863" target="kG1Z84SjeEAYpl0R3kHJ-1864" edge="1">
          <mxGeometry relative="1" as="geometry" />
        </mxCell>
        <mxCell id="kG1Z84SjeEAYpl0R3kHJ-1863" value="&lt;font style=&quot;font-size: 30px;&quot;&gt;공영버스&lt;br style=&quot;&quot;&gt;/농어촌버스 상세&lt;br style=&quot;&quot;&gt;Traffic2.do&lt;/font&gt;" style="rounded=1;whiteSpace=wrap;html=1;shadow=0;labelBackgroundColor=none;strokeWidth=3;fontFamily=Helvetica;fontSize=28;align=center;spacing=5;fontStyle=0;arcSize=7;perimeterSpacing=2;aspect=fixed;flipV=1;flipH=0;" parent="1" vertex="1">
          <mxGeometry x="1941.8199999999997" y="569.25" width="323.92" height="111.75" as="geometry" />
        </mxCell>
        <mxCell id="kG1Z84SjeEAYpl0R3kHJ-1864" value="기차/택시 상세&lt;br&gt;Traffic3.do" style="rounded=1;whiteSpace=wrap;html=1;shadow=0;labelBackgroundColor=none;strokeWidth=3;fontFamily=Helvetica;fontSize=30;align=center;spacing=5;fontStyle=0;arcSize=7;perimeterSpacing=2;aspect=fixed;flipV=1;flipH=0;" parent="1" vertex="1">
          <mxGeometry x="1950" y="712.69" width="310" height="106.94" as="geometry" />
        </mxCell>
        <mxCell id="B97FNli7kyXhGJYyz91e-1781" value="로그인&lt;br style=&quot;border-color: var(--border-color);&quot;&gt;Login.do" style="rounded=1;whiteSpace=wrap;html=1;shadow=0;labelBackgroundColor=none;strokeWidth=3;fontFamily=Helvetica;fontSize=30;align=center;spacing=5;fontStyle=1;arcSize=7;perimeterSpacing=2;aspect=fixed;fillColor=#cce5ff;strokeColor=#36393d;" parent="1" vertex="1">
          <mxGeometry x="-440" y="240" width="333.5" height="115" as="geometry" />
        </mxCell>
        <mxCell id="B97FNli7kyXhGJYyz91e-1828" style="edgeStyle=orthogonalEdgeStyle;rounded=0;orthogonalLoop=1;jettySize=auto;html=1;exitX=1;exitY=0.5;exitDx=0;exitDy=0;entryX=0;entryY=0.5;entryDx=0;entryDy=0;endArrow=none;endFill=0;" parent="1" source="B97FNli7kyXhGJYyz91e-1783" target="B97FNli7kyXhGJYyz91e-1806" edge="1">
          <mxGeometry relative="1" as="geometry" />
        </mxCell>
        <mxCell id="B97FNli7kyXhGJYyz91e-1783" value="&amp;lt;축제행사&amp;gt;&lt;br style=&quot;border-color: var(--border-color);&quot;&gt;함안수박축제 상세&lt;br style=&quot;border-color: var(--border-color);&quot;&gt;Watermelon.do" style="rounded=1;whiteSpace=wrap;html=1;shadow=0;labelBackgroundColor=none;strokeWidth=3;fontFamily=Helvetica;fontSize=30;align=center;spacing=5;fontStyle=1;arcSize=7;perimeterSpacing=2;aspect=fixed;fillColor=#cce5ff;strokeColor=#36393d;" parent="1" vertex="1">
          <mxGeometry x="-10" y="240" width="333.5" height="115" as="geometry" />
        </mxCell>
        <mxCell id="B97FNli7kyXhGJYyz91e-1804" style="edgeStyle=orthogonalEdgeStyle;rounded=0;orthogonalLoop=1;jettySize=auto;html=1;exitX=0.5;exitY=1;exitDx=0;exitDy=0;endArrow=none;endFill=0;" parent="1" source="B97FNli7kyXhGJYyz91e-1786" target="B97FNli7kyXhGJYyz91e-1802" edge="1">
          <mxGeometry relative="1" as="geometry" />
        </mxCell>
        <mxCell id="B97FNli7kyXhGJYyz91e-1805" style="edgeStyle=orthogonalEdgeStyle;rounded=0;orthogonalLoop=1;jettySize=auto;html=1;exitX=0.5;exitY=1;exitDx=0;exitDy=0;entryX=0.5;entryY=0;entryDx=0;entryDy=0;endArrow=none;endFill=0;" parent="1" source="B97FNli7kyXhGJYyz91e-1786" target="B97FNli7kyXhGJYyz91e-1803" edge="1">
          <mxGeometry relative="1" as="geometry" />
        </mxCell>
        <mxCell id="B97FNli7kyXhGJYyz91e-1810" style="rounded=0;orthogonalLoop=1;jettySize=auto;html=1;exitX=0.5;exitY=1;exitDx=0;exitDy=0;endArrow=none;endFill=0;" parent="1" source="B97FNli7kyXhGJYyz91e-1786" target="kG1Z84SjeEAYpl0R3kHJ-1827" edge="1">
          <mxGeometry relative="1" as="geometry" />
        </mxCell>
        <mxCell id="B97FNli7kyXhGJYyz91e-1786" value="&amp;lt;함안여행-생태관광&amp;gt;&lt;br style=&quot;border-color: var(--border-color);&quot;&gt;함안안양둑방 상세&lt;br style=&quot;border-color: var(--border-color);&quot;&gt;Eco1.do" style="rounded=1;whiteSpace=wrap;html=1;shadow=0;labelBackgroundColor=none;strokeWidth=3;fontFamily=Helvetica;fontSize=30;align=center;spacing=5;fontStyle=1;arcSize=7;perimeterSpacing=2;aspect=fixed;fillColor=#cce5ff;strokeColor=#36393d;" parent="1" vertex="1">
          <mxGeometry x="388.18000000000006" y="240" width="333.5" height="115" as="geometry" />
        </mxCell>
        <mxCell id="B97FNli7kyXhGJYyz91e-1793" value="&lt;font style=&quot;&quot;&gt;&lt;span style=&quot;font-size: 29px;&quot;&gt;고객 민원 목록&lt;/span&gt;&lt;br&gt;&lt;font style=&quot;font-size: 28px;&quot;&gt;ComplainList.do&lt;/font&gt;&lt;br&gt;&lt;/font&gt;" style="rounded=1;whiteSpace=wrap;html=1;shadow=0;labelBackgroundColor=none;strokeWidth=3;fontFamily=Helvetica;fontSize=30;align=center;spacing=5;fontStyle=0;arcSize=7;perimeterSpacing=2;aspect=fixed;" parent="1" vertex="1">
          <mxGeometry x="-800.0000000000001" y="412.32" width="289.86" height="100" as="geometry" />
        </mxCell>
        <mxCell id="B97FNli7kyXhGJYyz91e-1794" value="&lt;font style=&quot;&quot;&gt;&lt;font style=&quot;font-size: 30px;&quot;&gt;고객 민원 상세보기&lt;/font&gt;&lt;br&gt;&lt;font style=&quot;font-size: 29px;&quot;&gt;ComplainDetail.do&lt;/font&gt;&lt;br&gt;&lt;/font&gt;" style="rounded=1;whiteSpace=wrap;html=1;shadow=0;labelBackgroundColor=none;strokeWidth=3;fontFamily=Helvetica;fontSize=30;align=center;spacing=5;fontStyle=0;arcSize=7;perimeterSpacing=2;aspect=fixed;" parent="1" vertex="1">
          <mxGeometry x="-800.0000000000001" y="541.19" width="289.86" height="100" as="geometry" />
        </mxCell>
        <mxCell id="B97FNli7kyXhGJYyz91e-1795" value="&lt;font style=&quot;font-size: 31px;&quot;&gt;&lt;span style=&quot;&quot;&gt;고객 민원 글쓰기&lt;/span&gt;&lt;br&gt;&lt;font style=&quot;font-size: 31px;&quot;&gt;ComplainAdd.do&lt;/font&gt;&lt;br&gt;&lt;/font&gt;" style="rounded=1;whiteSpace=wrap;html=1;shadow=0;labelBackgroundColor=none;strokeWidth=3;fontFamily=Helvetica;fontSize=30;align=center;spacing=5;fontStyle=0;arcSize=7;perimeterSpacing=2;aspect=fixed;" parent="1" vertex="1">
          <mxGeometry x="-800.0000000000001" y="671.69" width="289.86" height="100" as="geometry" />
        </mxCell>
        <mxCell id="B97FNli7kyXhGJYyz91e-1797" value="&lt;font style=&quot;&quot;&gt;&lt;span style=&quot;font-size: 29px;&quot;&gt;고객 민원 글 삭제&lt;/span&gt;&lt;br&gt;&lt;font style=&quot;font-size: 29px;&quot;&gt;ComplainDel.do&lt;/font&gt;&lt;br&gt;&lt;/font&gt;" style="rounded=1;whiteSpace=wrap;html=1;shadow=0;labelBackgroundColor=none;strokeWidth=3;fontFamily=Helvetica;fontSize=30;align=center;spacing=5;fontStyle=0;arcSize=7;perimeterSpacing=2;aspect=fixed;" parent="1" vertex="1">
          <mxGeometry x="-800.0000000000001" y="800.57" width="289.86" height="100" as="geometry" />
        </mxCell>
        <mxCell id="B97FNli7kyXhGJYyz91e-1820" style="edgeStyle=orthogonalEdgeStyle;rounded=0;orthogonalLoop=1;jettySize=auto;html=1;exitX=0.5;exitY=1;exitDx=0;exitDy=0;endArrow=none;endFill=0;" parent="1" source="B97FNli7kyXhGJYyz91e-1802" target="kG1Z84SjeEAYpl0R3kHJ-1844" edge="1">
          <mxGeometry relative="1" as="geometry" />
        </mxCell>
        <mxCell id="B97FNli7kyXhGJYyz91e-1802" value="&amp;lt;함안여행-역사여행&amp;gt;&lt;br style=&quot;border-color: var(--border-color);&quot;&gt;함안 광심정 상세&lt;br style=&quot;border-color: var(--border-color);&quot;&gt;History1.do" style="rounded=1;whiteSpace=wrap;html=1;shadow=0;labelBackgroundColor=none;strokeWidth=3;fontFamily=Helvetica;fontSize=30;align=center;spacing=5;fontStyle=1;arcSize=7;perimeterSpacing=2;aspect=fixed;fillColor=#cce5ff;strokeColor=#36393d;" parent="1" vertex="1">
          <mxGeometry x="750" y="410" width="333.5" height="115" as="geometry" />
        </mxCell>
        <mxCell id="B97FNli7kyXhGJYyz91e-1803" value="&amp;lt;함안여행-문화재&amp;gt;&lt;br style=&quot;border-color: var(--border-color);&quot;&gt;문화재 상세&lt;br style=&quot;border-color: var(--border-color);&quot;&gt;Cultural.do" style="rounded=1;whiteSpace=wrap;html=1;shadow=0;labelBackgroundColor=none;strokeWidth=3;fontFamily=Helvetica;fontSize=30;align=center;spacing=5;fontStyle=1;arcSize=7;perimeterSpacing=2;aspect=fixed;fillColor=#cce5ff;strokeColor=#36393d;" parent="1" vertex="1">
          <mxGeometry x="1110" y="412.32" width="333.5" height="115" as="geometry" />
        </mxCell>
        <mxCell id="B97FNli7kyXhGJYyz91e-1808" style="edgeStyle=orthogonalEdgeStyle;rounded=0;orthogonalLoop=1;jettySize=auto;html=1;exitX=0.5;exitY=1;exitDx=0;exitDy=0;entryX=0.5;entryY=0;entryDx=0;entryDy=0;endArrow=none;endFill=0;" parent="1" source="B97FNli7kyXhGJYyz91e-1806" target="kG1Z84SjeEAYpl0R3kHJ-1858" edge="1">
          <mxGeometry relative="1" as="geometry" />
        </mxCell>
        <mxCell id="B97FNli7kyXhGJYyz91e-1825" style="edgeStyle=orthogonalEdgeStyle;rounded=0;orthogonalLoop=1;jettySize=auto;html=1;exitX=0.5;exitY=1;exitDx=0;exitDy=0;entryX=0.5;entryY=0;entryDx=0;entryDy=0;endArrow=none;endFill=0;" parent="1" source="B97FNli7kyXhGJYyz91e-1806" target="B97FNli7kyXhGJYyz91e-1812" edge="1">
          <mxGeometry relative="1" as="geometry" />
        </mxCell>
        <mxCell id="B97FNli7kyXhGJYyz91e-1826" style="edgeStyle=orthogonalEdgeStyle;rounded=0;orthogonalLoop=1;jettySize=auto;html=1;exitX=0.5;exitY=1;exitDx=0;exitDy=0;entryX=0.51;entryY=0.395;entryDx=0;entryDy=0;entryPerimeter=0;endArrow=none;endFill=0;" parent="1" source="B97FNli7kyXhGJYyz91e-1806" target="B97FNli7kyXhGJYyz91e-1811" edge="1">
          <mxGeometry relative="1" as="geometry" />
        </mxCell>
        <mxCell id="B97FNli7kyXhGJYyz91e-1806" value="&amp;lt;관광안내-관광지도&amp;gt;&lt;br style=&quot;border-color: var(--border-color);&quot;&gt;전통시장 상세&lt;br style=&quot;border-color: var(--border-color);&quot;&gt;Market.do" style="rounded=1;whiteSpace=wrap;html=1;shadow=0;labelBackgroundColor=none;strokeWidth=3;fontFamily=Helvetica;fontSize=30;align=center;spacing=5;fontStyle=1;arcSize=7;perimeterSpacing=2;aspect=fixed;fillColor=#cce5ff;strokeColor=#36393d;" parent="1" vertex="1">
          <mxGeometry x="1520" y="240" width="333.5" height="115" as="geometry" />
        </mxCell>
        <mxCell id="B97FNli7kyXhGJYyz91e-1811" value="&amp;lt;관광안내-여행갤러리&amp;gt;&lt;br style=&quot;border-color: var(--border-color);&quot;&gt;여행갤러리 목록&lt;br style=&quot;border-color: var(--border-color);&quot;&gt;PhotoList.do" style="rounded=1;whiteSpace=wrap;html=1;shadow=0;labelBackgroundColor=none;strokeWidth=3;fontFamily=Helvetica;fontSize=30;align=center;spacing=5;fontStyle=1;arcSize=7;perimeterSpacing=2;aspect=fixed;fillColor=#cce5ff;strokeColor=#36393d;" parent="1" vertex="1">
          <mxGeometry x="2380.14" y="419" width="333.5" height="115" as="geometry" />
        </mxCell>
        <mxCell id="B97FNli7kyXhGJYyz91e-1823" style="edgeStyle=orthogonalEdgeStyle;rounded=0;orthogonalLoop=1;jettySize=auto;html=1;exitX=0.5;exitY=1;exitDx=0;exitDy=0;entryX=0.5;entryY=0;entryDx=0;entryDy=0;endArrow=none;endFill=0;" parent="1" source="B97FNli7kyXhGJYyz91e-1812" target="kG1Z84SjeEAYpl0R3kHJ-1863" edge="1">
          <mxGeometry relative="1" as="geometry" />
        </mxCell>
        <mxCell id="B97FNli7kyXhGJYyz91e-1812" value="&amp;lt;관광안내-교통안내&amp;gt;&lt;br style=&quot;border-color: var(--border-color);&quot;&gt;시내/시외버스 상세&lt;br style=&quot;border-color: var(--border-color);&quot;&gt;Traffic1.do" style="rounded=1;whiteSpace=wrap;html=1;shadow=0;labelBackgroundColor=none;strokeWidth=3;fontFamily=Helvetica;fontSize=30;align=center;spacing=5;fontStyle=1;arcSize=7;perimeterSpacing=2;aspect=fixed;fillColor=#cce5ff;strokeColor=#36393d;" parent="1" vertex="1">
          <mxGeometry x="1930.1399999999999" y="419" width="333.5" height="115" as="geometry" />
        </mxCell>
        <mxCell id="k8YAd8yZ4b3_hYVsbffe-1771" value="&lt;font style=&quot;font-size: 30px;&quot;&gt;여행갤러리 상세&lt;br style=&quot;&quot;&gt;PhotoDetail.do&lt;/font&gt;" style="rounded=1;whiteSpace=wrap;html=1;shadow=0;labelBackgroundColor=none;strokeWidth=3;fontFamily=Helvetica;fontSize=28;align=center;spacing=5;fontStyle=0;arcSize=7;perimeterSpacing=2;aspect=fixed;flipV=1;flipH=0;" vertex="1" parent="1">
          <mxGeometry x="2389.9999999999995" y="560" width="323.92" height="111.75" as="geometry" />
        </mxCell>
        <mxCell id="k8YAd8yZ4b3_hYVsbffe-1773" value="&lt;font style=&quot;font-size: 30px;&quot;&gt;여행갤러리 글쓰기&lt;br style=&quot;&quot;&gt;PhotoAdd.do&lt;/font&gt;" style="rounded=1;whiteSpace=wrap;html=1;shadow=0;labelBackgroundColor=none;strokeWidth=3;fontFamily=Helvetica;fontSize=28;align=center;spacing=5;fontStyle=0;arcSize=7;perimeterSpacing=2;aspect=fixed;flipV=1;flipH=0;" vertex="1" parent="1">
          <mxGeometry x="2389.9999999999995" y="700" width="323.92" height="111.75" as="geometry" />
        </mxCell>
        <mxCell id="k8YAd8yZ4b3_hYVsbffe-1774" value="&lt;font style=&quot;font-size: 30px;&quot;&gt;여행갤러리 수정&lt;br style=&quot;&quot;&gt;PhotoUpdate.do&lt;/font&gt;" style="rounded=1;whiteSpace=wrap;html=1;shadow=0;labelBackgroundColor=none;strokeWidth=3;fontFamily=Helvetica;fontSize=28;align=center;spacing=5;fontStyle=0;arcSize=7;perimeterSpacing=2;aspect=fixed;flipV=1;flipH=0;" vertex="1" parent="1">
          <mxGeometry x="2389.9999999999995" y="840" width="323.92" height="111.75" as="geometry" />
        </mxCell>
        <mxCell id="k8YAd8yZ4b3_hYVsbffe-1775" value="&lt;font style=&quot;font-size: 30px;&quot;&gt;여행갤러리 삭제&lt;br style=&quot;&quot;&gt;PhotoDel.do&lt;/font&gt;" style="rounded=1;whiteSpace=wrap;html=1;shadow=0;labelBackgroundColor=none;strokeWidth=3;fontFamily=Helvetica;fontSize=28;align=center;spacing=5;fontStyle=0;arcSize=7;perimeterSpacing=2;aspect=fixed;flipV=1;flipH=0;" vertex="1" parent="1">
          <mxGeometry x="2389.9999999999995" y="980" width="323.92" height="111.75" as="geometry" />
        </mxCell>
      </root>
    </mxGraphModel>
  </diagram>
</mxfile>
